<svg xmlns="http://www.w3.org/2000/svg" width="122" height="56.778" viewBox="0 0 122 56.778">
  <g id="Groupe_2" data-name="Groupe 2" transform="translate(-144.278 -71.562)">
    <g id="Groupe_1" data-name="Groupe 1" transform="translate(144.282 71.563)">
      <path id="Tracé_1" data-name="Tracé 1" d="M32.326-31.073c0,4.109-2.241,6.575-7.023,6.575H17.384v-13H25.3C30.085-37.5,32.326-34.958,32.326-31.073ZM4.609-48.107.281-.008,4.609,4.34H17.384v-19.8h3.063l6.6,15.433L31.355,4.34H45.774l-12.1-20.77C41.74-18.821,45.326-25.021,45.326-31.6c0-9.115-9.819-20.842-22.669-20.842ZM53.32,4.34H66.1V-48.107l-4.4-4.33L49.005-.025ZM117.9-52.437,109.5-15.608l-21.367-32.5L83.7-52.437,71.016-.025,75.36,4.34H88.135V-28.01L105.228-.135,109.5,4.34h12.775V-48.107Z" transform="translate(-0.281 52.438)" fill="#ff00c4"/>
    </g>
    <path id="Tracé_2" data-name="Tracé 2" d="M32-31.4c0,4.109-2.241,6.575-7.023,6.575H17.053v-13h7.919C29.754-37.829,32-35.289,32-31.4ZM4.278-48.438V4.009H17.053v-19.8h3.063l10.908,19.8H45.443l-12.1-20.77C41.409-19.152,45-25.352,45-31.927c0-9.115-6.425-16.511-19.275-16.511ZM52.989,4.009H65.765V-48.438H52.989Zm56.182-52.447v32.5L87.8-48.438H75.029V4.009H87.8v-32.35l21.367,32.35h12.775V-48.438Z" transform="translate(140 120)" fill="#242424"/>
  </g>
</svg>
